<svg width="164" height="177" viewBox="0 0 164 177" fill="none" xmlns="http://www.w3.org/2000/svg">
<g clip-path="url(#clip0_15_19)">
<path d="M114.934 77.5047C124.79 77.5047 132.779 69.528 132.779 59.6884C132.779 49.8487 124.79 41.8721 114.934 41.8721C105.078 41.8721 97.0883 49.8487 97.0883 59.6884C97.0883 69.528 105.078 77.5047 114.934 77.5047Z" fill="#FF6584"/>
<path d="M163.885 72.9721C163.925 72.9649 163.954 72.9375 164 72.9445C163.98 72.8673 163.954 72.7919 163.922 72.7189C163.865 72.7962 163.807 72.8751 163.756 72.9441L163.885 72.9721Z" fill="white"/>
<path d="M44.1922 101.856C44.2964 105.743 44.9486 109.596 46.1295 113.302C46.1565 113.388 46.1848 113.472 46.213 113.558H53.4428C53.4351 113.481 53.4274 113.395 53.4196 113.302C52.9376 107.769 50.1583 74.0947 53.4814 68.336C53.1908 68.8032 43.6317 84.276 44.1922 101.856Z" fill="#E6E6E6"/>
<path d="M44.7347 113.302C44.7951 113.388 44.8581 113.474 44.9224 113.558H50.346C50.3048 113.485 50.2573 113.399 50.202 113.302C49.306 111.687 46.654 106.86 44.1922 101.856C41.5466 96.4787 39.1195 90.8971 39.324 88.877C39.2609 89.3326 37.4304 103.222 44.7347 113.302Z" fill="#E6E6E6"/>
<path d="M101.094 114.227C101.003 117.616 100.434 120.975 99.4046 124.206C99.381 124.281 99.3564 124.354 99.3317 124.429H93.0287C93.0354 124.362 93.0422 124.287 93.0489 124.206C93.4692 119.382 95.8922 90.0243 92.9951 85.0038C93.2484 85.4111 101.582 98.9005 101.094 114.227Z" fill="#E6E6E6"/>
<path d="M100.621 124.206C100.568 124.281 100.513 124.355 100.457 124.429H95.7286C95.7644 124.366 95.8059 124.291 95.8541 124.206C96.6353 122.798 98.9473 118.59 101.094 114.227C103.4 109.539 105.516 104.673 105.338 102.912C105.393 103.309 106.989 115.418 100.621 124.206Z" fill="#E6E6E6"/>
<path d="M29.0262 14.4612L31.9656 12.1141C29.6821 11.8626 28.7439 13.1059 28.3599 14.09C26.576 13.3505 24.634 14.3197 24.634 14.3197L30.5151 16.4512C30.2184 15.6601 29.7019 14.9697 29.0262 14.4612Z" fill="#3F3D56"/>
<path d="M117.557 2.37994L120.497 0.0328698C118.213 -0.218645 117.275 1.02466 116.891 2.00875C115.107 1.26921 113.165 2.23841 113.165 2.23841L119.046 4.36997C118.749 3.5788 118.233 2.88848 117.557 2.37994Z" fill="#3F3D56"/>
<path d="M160.804 95.1955C160.804 97.1403 160.737 99.0691 160.601 100.982C159.554 116.074 154.312 130.576 145.465 142.858C144.309 144.469 143.095 146.035 141.823 147.555C138.527 151.501 134.869 155.13 130.894 158.393L113.474 148.188L103.058 123.917C103.058 123.917 118.598 92.503 160.777 93.0726C160.794 93.7778 160.804 94.4854 160.804 95.1955Z" fill="#3F3D56"/>
<path d="M160.601 100.982C159.799 112.26 156.665 123.25 151.396 133.258C146.127 143.265 138.837 152.074 129.987 159.128L113.803 149.648L104.566 128.123C104.566 128.123 119.533 97.868 160.601 100.982Z" fill="#6C63FF"/>
<path d="M145.465 142.858C144.309 144.469 143.095 146.035 141.823 147.555C133.301 157.778 122.412 165.772 110.098 170.847C107.605 171.873 105.053 172.778 102.442 173.562C83.5912 178.567 63.6202 177.301 45.5549 169.956C27.6885 161.995 13.2506 147.935 4.8344 130.301C3.70335 127.927 2.68624 125.493 1.78307 122.999C17.5349 111.479 48.5736 94.9822 82.4022 111.012C91.7598 115.446 100.115 119.488 107.469 123.137C126.129 132.371 138.548 139.029 145.465 142.858Z" fill="#3F3D56"/>
<path d="M141.823 147.555C133.013 158.096 121.69 166.255 108.896 171.283C96.1007 176.311 82.2448 178.045 68.6027 176.327C54.9605 174.608 41.9703 169.493 30.8271 161.45C19.6839 153.407 10.7455 142.696 4.83441 130.301C17.9898 119.915 48.3323 101.251 81.6305 117.027C90.1939 121.084 97.839 124.783 104.566 128.123C124.176 137.827 136.255 144.421 141.823 147.555Z" fill="#6C63FF"/>
<path d="M118.603 166.754C115.849 168.279 113.009 169.646 110.098 170.847C100.192 174.923 89.5799 177.013 78.8657 177C66.1878 176.995 53.6836 174.056 42.3352 168.413C30.9868 162.77 21.1032 154.578 13.4606 144.479C33.0304 142.419 87.1249 139.641 118.603 166.754Z" fill="#3F3D56"/>
<path d="M110.098 170.847C94.7375 177.153 77.8216 178.655 61.5875 175.154C45.3535 171.654 30.5661 163.316 19.1812 151.244C26.2993 150.2 82.1835 143.031 110.098 170.847Z" fill="#6C63FF"/>
<path d="M147.061 49.8317V49.8342C88.5526 6.64595 21.5187 37.0441 21.001 37.2775V37.275C28.5989 29.6904 37.6209 23.6767 47.5503 19.5783C57.4796 15.4799 68.1213 13.3774 78.8657 13.3911C107.311 13.3911 132.37 27.8624 147.061 49.8317Z" fill="#E6E6E6"/>
<path d="M25.6937 96.7814C35.5914 94.9998 40.6633 77.2108 37.0221 57.0486C33.381 36.8863 22.4056 21.9859 12.5079 23.7675C2.61019 25.5491 -2.46174 43.3381 1.17942 63.5003C4.82058 83.6625 15.796 98.563 25.6937 96.7814Z" fill="#3F3D56"/>
<path d="M28.2373 120.328C27.6506 76.042 12.8087 34.4821 12.6589 34.0678L11.3054 34.5553C11.4544 34.9675 26.2148 76.3097 26.7986 120.348L28.2373 120.328Z" fill="#6C63FF"/>
<path d="M1.90501 55.2644L1.46217 56.6315L19.2308 62.3685L19.6736 61.0014L1.90501 55.2644Z" fill="#6C63FF"/>
<path d="M35.3293 53.7245L20.6891 65.3L21.5826 66.4264L36.2228 54.8508L35.3293 53.7245Z" fill="#6C63FF"/>
<path d="M73.2855 90.3967C84.1684 90.3967 92.9907 72.4251 92.9907 50.2559C92.9907 28.0867 84.1684 10.1151 73.2855 10.1151C62.4026 10.1151 53.5803 28.0867 53.5803 50.2559C53.5803 72.4251 62.4026 90.3967 73.2855 90.3967Z" fill="#3F3D56"/>
<path d="M71.4658 115.96C79.358 68.6861 71.5453 21.583 71.4654 21.1131L69.9303 21.3727C70.0097 21.8403 77.7776 68.6959 69.9299 115.705L71.4658 115.96Z" fill="#6C63FF"/>
<path d="M55.9369 41.6244L55.2023 42.9954L73.0212 52.5108L73.7557 51.1398L55.9369 41.6244Z" fill="#6C63FF"/>
<path d="M91.8273 46.391L74.0105 55.9118L74.7454 57.2825L92.5622 47.7617L91.8273 46.391Z" fill="#6C63FF"/>
<path d="M158.879 77.4846C151.649 73.4321 144.096 69.9842 136.296 67.1762C93.1673 51.5958 50.4009 57.6006 33.6612 79.8986C46.6885 52.5819 93.1724 43.9925 140.081 60.938C145.541 62.9086 150.884 65.1874 156.084 67.7634C157.217 70.9427 158.151 74.1894 158.879 77.4846Z" fill="#E6E6E6"/>
<path d="M100.631 33.5267L103.571 31.1797C101.287 30.9282 100.349 32.1715 99.9651 33.1556C98.1812 32.416 96.2391 33.3852 96.2391 33.3852L102.12 35.5168C101.824 34.7256 101.307 34.0353 100.631 33.5267Z" fill="#3F3D56"/>
</g>
<defs>
<clipPath id="clip0_15_19">
<rect width="164" height="177" fill="white"/>
</clipPath>
</defs>
</svg>
