<svg width="100" height="84" viewBox="0 0 100 84" fill="none" xmlns="http://www.w3.org/2000/svg">
<g clip-path="url(#clip0_0_557)">
<path fill-rule="evenodd" clip-rule="evenodd" d="M34.37 3.00248C31.2036 15.7501 26.4087 53.4105 75.8954 52.4919C77.2354 52.467 78.0476 53.9537 77.2704 55.0527C73.8876 59.832 64.6854 69.0361 44.7019 67.3421C44.7019 67.3421 15.9903 63.7737 14.7514 31.2576C14.7514 31.2576 13.5969 12.3103 31.7788 1.08452C33.1043 0.267576 34.7472 1.48677 34.37 3.00248Z" fill="#ADC1E3"/>
<path fill-rule="evenodd" clip-rule="evenodd" d="M31.8897 35.1161C32.304 38.6078 29.8241 41.774 26.3547 42.1908C22.8833 42.6075 19.7334 40.1132 19.3211 36.6235C18.9068 33.1318 21.3846 29.9636 24.8561 29.5489C28.3275 29.1321 31.4753 31.6244 31.8897 35.1161Z" fill="#8AA1C4"/>
<path fill-rule="evenodd" clip-rule="evenodd" d="M40.3919 53.7448C40.7053 56.3843 38.8314 58.7771 36.2072 59.0922C33.583 59.4074 31.2041 57.5226 30.8908 54.8831C30.5774 52.2436 32.4513 49.8508 35.0755 49.5356C37.6997 49.2205 40.0786 51.1052 40.3919 53.7448Z" fill="#8AA1C4"/>
<path fill-rule="evenodd" clip-rule="evenodd" d="M49.8396 53.4163C50.0994 55.6183 48.5368 57.6151 46.3496 57.8763C44.1604 58.1397 42.1752 56.568 41.9155 54.366C41.6537 52.166 43.2162 50.1672 45.4055 49.9059C47.5927 49.6426 49.5778 51.2143 49.8396 53.4163Z" fill="#8AA1C4"/>
<path fill-rule="evenodd" clip-rule="evenodd" d="M65.539 57.5493C65.7349 59.2081 64.5578 60.7134 62.9086 60.9125C61.2595 61.1095 59.7629 59.9234 59.565 58.2647C59.3692 56.6059 60.5462 55.1006 62.1954 54.9036C63.8466 54.7045 65.3432 55.8906 65.539 57.5493Z" fill="#8AA1C4"/>
<path fill-rule="evenodd" clip-rule="evenodd" d="M30.5496 21.9305C30.7455 23.5893 29.5684 25.0947 27.9193 25.2937C26.2701 25.4907 24.7735 24.3047 24.5756 22.6459C24.3798 20.9871 25.5569 19.4818 27.206 19.2848C28.8572 19.0858 30.3538 20.2718 30.5496 21.9305Z" fill="#8AA1C4"/>
<path fill-rule="evenodd" clip-rule="evenodd" d="M88.6201 47.7603C94.5571 47.7603 99.387 52.6827 99.387 58.7372C99.387 64.7876 94.5571 69.71 88.6201 69.71H41.8071C34.3571 69.71 28.2944 63.529 28.2944 55.9318C28.2944 48.3346 34.3571 42.1536 41.8071 42.1536C43.1945 42.1536 44.5736 42.3714 45.9011 42.8006L46.769 43.0805L47.0741 42.2076C49.9353 34.007 57.5812 28.4978 66.099 28.4978C76.5134 28.4978 85.1569 36.4516 86.2062 47.0014L86.3031 47.978L87.2596 47.8577C87.7873 47.7914 88.2202 47.7603 88.6201 47.7603Z" fill="#BAC6D1"/>
<path fill-rule="evenodd" clip-rule="evenodd" d="M11.8942 59.1789C5.3368 59.1789 -0.000244141 64.5989 -0.000244141 71.263C-0.000244141 77.923 5.3368 83.3451 11.8942 83.3451H63.6093C71.8427 83.3451 78.5382 76.54 78.5382 68.1757C78.5382 59.8113 71.8427 53.0062 63.6093 53.0062C62.0777 53.0062 60.5543 53.2467 59.0865 53.7174L58.13 54.0263L57.792 53.0642C54.6318 44.0364 46.184 37.9715 36.7736 37.9715C25.2688 37.9715 15.7202 46.7298 14.5617 58.3433L14.4545 59.4194L13.3991 59.2867C12.8136 59.2121 12.3354 59.1789 11.8942 59.1789Z" fill="#D6E3F2"/>
</g>
<defs>
<clipPath id="clip0_0_557">
<rect width="100" height="84" fill="white"/>
</clipPath>
</defs>
</svg>
