<svg width="84" height="66" viewBox="0 0 84 66" fill="none" xmlns="http://www.w3.org/2000/svg">
<g clip-path="url(#clip0_0_880)">
<path fill-rule="evenodd" clip-rule="evenodd" d="M26.9605 60.5138C26.9605 63.3658 24.6176 65.6785 21.7285 65.6785C18.8393 65.6785 16.4986 63.3658 16.4986 60.5138C16.4986 57.6619 18.8393 55.3492 21.7285 55.3492C24.6176 55.3492 26.9605 57.6619 26.9605 60.5138Z" fill="#4FB4ED"/>
<path fill-rule="evenodd" clip-rule="evenodd" d="M46.2963 60.5138C46.2963 63.3658 43.9534 65.6785 41.0643 65.6785C38.1751 65.6785 35.8344 63.3658 35.8344 60.5138C35.8344 57.6619 38.1751 55.3492 41.0643 55.3492C43.9534 55.3492 46.2963 57.6619 46.2963 60.5138Z" fill="#4FB4ED"/>
<path fill-rule="evenodd" clip-rule="evenodd" d="M65.8304 60.5138C65.8304 63.3658 63.4875 65.6785 60.5983 65.6785C57.7092 65.6785 55.3685 63.3658 55.3685 60.5138C55.3685 57.6619 57.7092 55.3492 60.5983 55.3492C63.4875 55.3492 65.8304 57.6619 65.8304 60.5138Z" fill="#4FB4ED"/>
<path fill-rule="evenodd" clip-rule="evenodd" d="M12.6576 22.1716C5.67936 22.1716 -0.000213623 27.8321 -0.000213623 34.792C-0.000213623 41.7475 5.67936 47.4102 12.6576 47.4102H67.6918C76.4535 47.4102 83.5788 40.3031 83.5788 31.5676C83.5788 22.8321 76.4535 15.725 67.6918 15.725C66.0618 15.725 64.4407 15.9762 62.8787 16.4678L61.8608 16.7904L61.5011 15.7856C58.1381 6.35719 49.1482 0.0231934 39.1338 0.0231934C26.8906 0.0231934 16.7292 9.17013 15.4963 21.2989L15.3822 22.4228L14.259 22.2842C13.636 22.2063 13.1271 22.1716 12.6576 22.1716Z" fill="#D6E3F2"/>
</g>
<defs>
<clipPath id="clip0_0_880">
<rect width="84" height="66" fill="white"/>
</clipPath>
</defs>
</svg>
